<svg width="862" height="29" viewBox="0 0 862 29" fill="none" xmlns="http://www.w3.org/2000/svg">
<rect x="278" width="37" height="21" rx="4" fill="#090B0B"/>
<path d="M286.9 14V13.47H288.94V7.46H288.89L286.97 9.17L286.63 8.79L288.62 7.02H289.54V13.47H291.46V14H286.9ZM293.396 14.09C293.229 14.09 293.106 14.05 293.026 13.97C292.953 13.8833 292.916 13.7733 292.916 13.64V13.53C292.916 13.3967 292.953 13.29 293.026 13.21C293.106 13.1233 293.229 13.08 293.396 13.08C293.556 13.08 293.676 13.1233 293.756 13.21C293.836 13.29 293.876 13.3967 293.876 13.53V13.64C293.876 13.7733 293.836 13.8833 293.756 13.97C293.676 14.05 293.556 14.09 293.396 14.09ZM293.396 9.8C293.229 9.8 293.106 9.76 293.026 9.68C292.953 9.59333 292.916 9.48333 292.916 9.35V9.24C292.916 9.10667 292.953 9 293.026 8.92C293.106 8.83333 293.229 8.79 293.396 8.79C293.556 8.79 293.676 8.83333 293.756 8.92C293.836 9 293.876 9.10667 293.876 9.24V9.35C293.876 9.48333 293.836 9.59333 293.756 9.68C293.676 9.76 293.556 9.8 293.396 9.8ZM297.479 10.08C297.959 10.08 298.332 9.96333 298.599 9.73C298.872 9.49 299.009 9.18 299.009 8.8V8.67C299.009 8.27667 298.879 7.97333 298.619 7.76C298.359 7.54667 298.025 7.44 297.619 7.44C297.212 7.44 296.885 7.52333 296.639 7.69C296.399 7.85 296.205 8.07 296.059 8.35L295.609 8.03C295.689 7.88333 295.789 7.74333 295.909 7.61C296.029 7.47 296.169 7.34667 296.329 7.24C296.495 7.13333 296.685 7.05 296.899 6.99C297.112 6.93 297.355 6.9 297.629 6.9C297.915 6.9 298.182 6.94 298.429 7.02C298.675 7.1 298.889 7.21667 299.069 7.37C299.249 7.51667 299.389 7.7 299.489 7.92C299.595 8.13333 299.649 8.37667 299.649 8.65C299.649 9.12333 299.519 9.49333 299.259 9.76C298.999 10.0267 298.675 10.2067 298.289 10.3V10.34C298.495 10.3733 298.689 10.4367 298.869 10.53C299.049 10.6167 299.205 10.7333 299.339 10.88C299.479 11.0267 299.589 11.2033 299.669 11.41C299.749 11.6167 299.789 11.85 299.789 12.11C299.789 12.41 299.735 12.6867 299.629 12.94C299.522 13.1867 299.369 13.3967 299.169 13.57C298.975 13.7433 298.739 13.88 298.459 13.98C298.185 14.0733 297.879 14.12 297.539 14.12C296.979 14.12 296.525 14.0133 296.179 13.8C295.832 13.58 295.549 13.3067 295.329 12.98L295.779 12.64C295.972 12.94 296.202 13.1733 296.469 13.34C296.742 13.5 297.095 13.58 297.529 13.58C298.035 13.58 298.432 13.4567 298.719 13.21C299.005 12.9567 299.149 12.61 299.149 12.17V12.01C299.149 11.57 299.009 11.2267 298.729 10.98C298.449 10.7267 298.049 10.6 297.529 10.6H296.649V10.08H297.479ZM304.685 14V12.54H301.215V12.01L304.395 7.02H305.255V12.04H306.335V12.54H305.255V14H304.685ZM301.775 12.04H304.685V7.53H304.655L301.775 12.04Z" fill="white"/>
<rect x="0.625" y="25" width="860.75" height="4" rx="2" fill="white"/>
<path d="M0.625 27C0.625 25.8954 1.52043 25 2.625 25H298V29H2.62499C1.52042 29 0.625 28.1046 0.625 27Z" fill="#237CCE"/>
</svg>
