<svg width="32" height="32" viewBox="0 0 32 32" fill="none" xmlns="http://www.w3.org/2000/svg">
<path fill-rule="evenodd" clip-rule="evenodd" d="M2.66669 16C2.66669 8.63601 8.63602 2.66667 16 2.66667C23.364 2.66667 29.3334 8.63601 29.3334 16C29.3334 23.364 23.364 29.3333 16 29.3333C8.63602 29.3333 2.66669 23.364 2.66669 16ZM26.6667 16C26.6667 10.1187 21.8814 5.33334 16 5.33334C10.1187 5.33334 5.33335 10.1187 5.33335 16C5.33335 21.8813 10.1187 26.6667 16 26.6667C21.8814 26.6667 26.6667 21.8813 26.6667 16ZM14.6667 21.3333H12V10.6667H14.6667V21.3333ZM20 21.3333H17.3334V10.6667H20V21.3333Z" fill="white"/>
</svg>
